<svg xmlns="http://www.w3.org/2000/svg" viewBox="0 0 412.83 215.85"><defs><style>.cls-1{fill:none;stroke:#000;stroke-miterlimit:10;stroke-width:4px;}</style></defs><g id="Calque_2" data-name="Calque 2"><g id="Calque_1-2" data-name="Calque 1"><path class="cls-1" d="M294.28,40.1c22.7,3.4,41,13.2,53.2,30.8a54,54,0,0,1,9.72,38.88c-1.5,11.7-7.6,21.6-13.3,31.7-5.1,9.2-10.8,18.1-15.9,27.2-8.8,15.8-22.7,23.9-42.2,23.5-7.3-.1-14.1-2.7-21-4.5-1.6-.4-1-1.4-.7-2.4,12-40.4,20.4-81.6,30.5-122.5A46,46,0,0,0,294.28,40.1Z"/><path class="cls-1" d="M127.38,191c-19.8-.3-32.5-7.5-40.6-21.2-8.1-13.5-15.9-27.3-23.6-41-5-9-7.7-18.6-7.2-28.7.8-14.5,6.3-27.2,16.9-38.3,12-12.7,27.5-19,44.8-22.5,1.2-.2,2.6-1,2.1,1.2-3.2,13.9,1.1,27.1,4.1,40.5,5.5,24,10.8,48,16.6,72,2.5,10.6,4,21.5,8.2,31.7.5,1.2.6,2.1-1.2,2.4C140.2,188.6,132.88,191.6,127.38,191Z"/><path class="cls-1" d="M24.58,212.2c-11.5,0-17.6-4.2-20.2-14.6-6-23.9-.6-45.6,15.7-65,5.7-6.7,12.5-12.4,19.5-17.9,1.9-1.5,3-1.5,3.6,1.3a71.34,71.34,0,0,0,10.1,24.2c4.9,7.9,9.1,16.1,13.7,24.1,4.4,7.7,8.2,15.7,14.5,22.3,1.1,1.1,2.2,2.3-.3,3.7-15.3,8.3-30.8,16.3-48.2,20.5a21,21,0,0,1-4.4.5C27.38,212.3,25.78,211.3,24.58,212.2Z"/><path class="cls-1" d="M371.48,115c13.6,9.4,24.3,20.2,31.2,33.8,8.4,16.4,10.5,33.6,5.4,51.1-3.6,12.1-10.2,15.4-24.6,13.4-16.7-2.4-30.9-10.6-45.4-18-2.9-1.5-7.3-2.6-7.7-5.2-.3-2,3.5-4.4,5.4-6.8,3.9-5,6.6-10.7,9.8-16,6.1-10.1,12-20.2,17.8-30.5A77.42,77.42,0,0,0,371.48,115Z"/><path class="cls-1" d="M205.48,2c11.2,0,22.4-.2,33.5,2.2,20.5,4.5,36,18.2,40.7,37.4,2.2,8.9.8,17.4-1.3,26q-12,49.35-23.8,98.7c-2.1,8.8-4.5,17.4-11.2,24.4a48.08,48.08,0,0,1-31.2,14.8c-10.8,1-21-.6-30.4-5.7-11.1-6-18.6-14.5-21.4-26.2q-8.25-35.25-16.4-70.5c-3.3-14.2-6.8-28.4-9.8-42.6-4.4-20.6,7.1-42.1,27.6-51.7a73.61,73.61,0,0,1,31.3-6.7C197.2,2,201.38,2,205.48,2Z"/></g></g></svg>