<svg xmlns="http://www.w3.org/2000/svg" xmlns:xlink="http://www.w3.org/1999/xlink" viewBox="0 0 748.59 739.22"><defs><style>.cls-1,.cls-3,.cls-7{fill:none;}.cls-2,.cls-3{stroke:#000;}.cls-2,.cls-3,.cls-7{stroke-miterlimit:10;}.cls-3{stroke-width:0.75px;}.cls-4,.cls-5{isolation:isolate;font-size:135.64px;font-family:PassengerDisplay-Bold, Passenger Display;font-weight:700;}.cls-4{letter-spacing:-0.12em;}.cls-6{clip-path:url(#clip-path);}.cls-7{stroke:#020000;stroke-width:1.77px;}.cls-8{clip-path:url(#clip-path-2);}.cls-9{font-size:26px;font-family:PassengerDisplay-Light, Passenger Display;font-weight:300;}.cls-10{letter-spacing:-0.01em;}.cls-11{letter-spacing:0.01em;}.cls-12{letter-spacing:0em;}</style><clipPath id="clip-path"><rect class="cls-1" x="53.98" y="46.02" width="635" height="311"/></clipPath><clipPath id="clip-path-2"><rect class="cls-1" x="79.98" y="496.02" width="609" height="185"/></clipPath></defs><g id="Calque_2" data-name="Calque 2"><g id="Calque_1-2" data-name="Calque 1"><path d="M462.08,165.32c22.7,3.4,41,13.2,53.2,30.8A53.91,53.91,0,0,1,525,235c-1.5,11.7-7.6,21.6-13.3,31.7-5.1,9.2-10.8,18.1-15.9,27.2-8.8,15.8-22.7,23.9-42.2,23.5-7.3-.1-14.1-2.7-21-4.5-1.6-.4-1-1.4-.7-2.4,12-40.4,20.4-81.6,30.5-122.5A45.91,45.91,0,0,0,462.08,165.32Z"/><path d="M295.18,316.22c-19.8-.3-32.5-7.5-40.6-21.2-8.1-13.5-15.9-27.3-23.6-41-5-9-7.7-18.6-7.2-28.7.8-14.5,6.3-27.2,16.9-38.3,12-12.7,27.5-19,44.8-22.5,1.2-.2,2.6-1,2.1,1.2-3.2,13.9,1.1,27.1,4.1,40.5,5.5,24,10.8,48,16.6,72,2.5,10.6,4,21.5,8.2,31.7.5,1.2.6,2.1-1.2,2.4C308,313.82,300.68,316.82,295.18,316.22Z"/><path d="M192.38,337.42c-11.5,0-17.6-4.2-20.2-14.6-6-23.9-.6-45.6,15.7-65,5.7-6.7,12.5-12.4,19.5-17.9,1.9-1.5,3-1.5,3.6,1.3a71.55,71.55,0,0,0,10.1,24.2c4.9,7.9,9.1,16.1,13.7,24.1,4.4,7.7,8.2,15.7,14.5,22.3,1.1,1.1,2.2,2.3-.3,3.7-15.3,8.3-30.8,16.3-48.2,20.5a21.18,21.18,0,0,1-4.4.5C195.18,337.52,193.58,336.52,192.38,337.42Z"/><path d="M539.28,240.22c13.6,9.4,24.3,20.2,31.2,33.8,8.4,16.4,10.5,33.6,5.4,51.1-3.6,12.1-10.2,15.4-24.6,13.4-16.7-2.4-30.9-10.6-45.4-18-2.9-1.5-7.3-2.6-7.7-5.2-.3-2,3.5-4.4,5.4-6.8,3.9-5,6.6-10.7,9.8-16,6.1-10.1,12-20.2,17.8-30.5A77.45,77.45,0,0,0,539.28,240.22Z"/><path class="cls-2" d="M20,472.12c.3-7,.6-14,1-21,.8-14.9-2.8-28.8-8.7-42.4-3.3-7.5-6.3-15.2-9-23a49.93,49.93,0,0,1,.6-34.5c3.4-9.3,7.2-18.5,11-27.6,5.7-13.6,6.6-27.7,5.8-42.2-.5-9.2-.7-18.5-.3-27.7.5-11.1,5.5-20.6,12.6-28.9,5.9-6.8,12-13.5,18.1-20.1,10.2-10.9,16.4-23.9,20.6-38,2-6.8,4.3-13.5,6.6-20.3,4.6-13.4,13.3-23.4,25.7-30.2,7.4-4,14.9-8,22.5-11.8,13.6-6.8,24.1-17,32.9-29.1,3.3-4.6,6.9-8.9,10.3-13.5,10.5-14.4,24.8-21.8,42.4-23.7,8.6-1,17.2-2.2,25.8-3.5,12.8-2,23.9-7.9,34.6-14.8q10.35-6.75,21-12.9c11.6-6.7,24.2-7.6,37.1-5,8.2,1.6,16.3,3.4,24.5,5.3,14.9,3.5,29.6,2.3,44.2-1.2,7-1.7,14.1-3.1,21.2-4.5,14-2.8,26.9.3,38.9,7.6,6.1,3.8,12.3,7.6,18.3,11.7,14.6,10,30.9,14.4,48.3,16a201.16,201.16,0,0,1,20.4,3.2c12.1,2.3,21.8,8.8,29.6,18.2,5.7,6.9,11.1,13.9,16.4,21.1,9,12.1,20.6,20.7,34,27.3,6,3,11.8,6.1,17.7,9.3,13.1,7,22.2,17.5,26.8,31.7,2.7,8.1,5.4,16.3,7.9,24.5,4.2,14.3,12.5,26.2,22.6,36.8,4.1,4.3,8,8.9,12.1,13.2,12.5,13.2,16.6,29.1,15.3,46.8-.5,6.2-.6,12.4-1,18.6-.8,14.9,2.6,28.9,8.5,42.4,3,6.8,5.7,13.7,8.3,20.7,5,13.2,4.5,26.3-.5,39.3-3.5,8.9-7.1,17.8-10.7,26.7-5.3,12.8-6.1,26.2-5.4,39.9.5,8.8.6,17.6.5,26.4-.2,12.3-5.4,22.7-13.3,31.8-5.7,6.6-11.5,13-17.5,19.3-10.4,10.9-16.7,24-20.9,38.2-1.9,6.5-4,12.9-6.2,19.3a54.09,54.09,0,0,1-26.7,31.5c-7.3,3.9-14.5,7.8-21.9,11.5-13.5,6.7-23.9,16.8-32.7,28.8-3.5,4.8-7.3,9.4-10.9,14.3-10.4,14.1-24.6,21.3-41.9,23.3q-12.9,1.5-25.8,3.6c-12.9,2-24.1,7.9-34.9,14.9-4.7,3.1-9.5,6-14.2,9.2-14.6,9.7-30.3,12-47.3,8-8.9-2.1-17.8-4-26.8-5.7-13.9-2.7-27.4-.3-40.9,2.9-6.4,1.5-12.8,2.8-19.2,4-13.5,2.5-26-.3-37.6-7.4-6.4-3.9-12.9-7.9-19.1-12.2-14.5-9.9-30.8-14.2-48-15.8-6.5-.6-13-1.7-19.4-2.9a50.84,50.84,0,0,1-30.4-18.3c-5.6-6.8-11-13.8-16.2-20.8-9.1-12.2-20.9-21.1-34.4-27.8-6.1-3-12-6.2-18-9.4-12.9-7-21.8-17.4-26.4-31.3-2.6-7.9-5.2-15.8-7.6-23.8-4.4-14.8-12.7-27.1-23.3-38-4.1-4.2-7.9-8.7-11.9-13C23.38,504.22,18.58,489.22,20,472.12Zm354.6,238.5c186.1.2,339.1-150,340.8-337.8,1.7-188.8-149.6-344.5-341.1-344.3-193.9.2-342.3,157.8-341,343.4,1.3,188.3,154.7,339.2,341.3,338.7Z"/><text/><line class="cls-3" x1="218.38" y1="516.32" x2="530.08" y2="516.32"/><path d="M373.28,127.22c11.2,0,22.4-.2,33.5,2.2,20.5,4.5,36,18.2,40.7,37.4,2.2,8.9.8,17.4-1.3,26q-12,49.35-23.8,98.7c-2.1,8.8-4.5,17.4-11.2,24.4a48.13,48.13,0,0,1-31.2,14.8c-10.8,1-21-.6-30.4-5.7-11.1-6-18.6-14.5-21.4-26.2q-8.25-35.25-16.4-70.5c-3.3-14.2-6.8-28.4-9.8-42.6-4.4-20.6,7.1-42.1,27.6-51.7a73.43,73.43,0,0,1,31.3-6.7C365,127.22,369.18,127.22,373.28,127.22Z"/><text class="cls-4" transform="translate(65.09 472.22)">W</text><text class="cls-5" transform="translate(188.39 472.22)">AKE UP</text><rect class="cls-1" x="53.98" y="46.02" width="635" height="311"/><g class="cls-6"><circle class="cls-7" cx="374.88" cy="369.62" r="302.3"/></g><g class="cls-8"><circle class="cls-7" cx="374.88" cy="369.62" r="302.3"/></g><text class="cls-9" transform="translate(238.39 573.02)">CLERMON<tspan class="cls-10" x="125.06" y="0">T</tspan><tspan x="141.13" y="0">-FER</tspan><tspan class="cls-11" x="199.26" y="0">R</tspan><tspan class="cls-12" x="217.05" y="0">AND</tspan></text></g></g></svg>